<?xml version="1.0" encoding="UTF-8" standalone="no"?>
<!-- Created with Inkscape (http://www.inkscape.org/) -->

<svg
   xmlns:dc="http://purl.org/dc/elements/1.1/"
   xmlns:cc="http://creativecommons.org/ns#"
   xmlns:rdf="http://www.w3.org/1999/02/22-rdf-syntax-ns#"
   xmlns:svg="http://www.w3.org/2000/svg"
   xmlns="http://www.w3.org/2000/svg"
   xmlns:sodipodi="http://sodipodi.sourceforge.net/DTD/sodipodi-0.dtd"
   xmlns:inkscape="http://www.inkscape.org/namespaces/inkscape"
   version="1.1"
   id="svg815"
   xml:space="preserve"
   width="200"
   height="76"
   viewBox="0 0 200 76"
   sodipodi:docname="logo-branco.svg"
   inkscape:version="0.92.4 (5da689c313, 2019-01-14)"><metadata
     id="metadata821"><rdf:RDF><cc:Work
         rdf:about=""><dc:format>image/svg+xml</dc:format><dc:type
           rdf:resource="http://purl.org/dc/dcmitype/StillImage" /><dc:title></dc:title></cc:Work></rdf:RDF></metadata><defs
     id="defs819" /><sodipodi:namedview
     pagecolor="#ffffff"
     bordercolor="#666666"
     borderopacity="1"
     objecttolerance="10"
     gridtolerance="10"
     guidetolerance="10"
     inkscape:pageopacity="0"
     inkscape:pageshadow="2"
     inkscape:window-width="1920"
     inkscape:window-height="977"
     id="namedview817"
     showgrid="false"
     inkscape:zoom="6.31"
     inkscape:cx="100"
     inkscape:cy="38"
     inkscape:window-x="0"
     inkscape:window-y="0"
     inkscape:window-maximized="1"
     inkscape:current-layer="g823" /><g
     id="g823"
     inkscape:groupmode="layer"
     inkscape:label="logo-branco"
     transform="matrix(1.3333333,0,0,1.3333333,0,1.9e-6)"><g
       id="g825"><path
         d="m 21.023,11.922 h 25.379 l 1.508,3.125 c 0.574,1.312 0.227,1.355 -4.254,9.535 -0.531,0.961 -1.144,2.02 -1.883,2.93 -0.75,0.929 -1.375,2.074 -2.07,3.3 -0.203,0.364 -0.305,0.942 -0.508,1.305 -3.648,6.418 -6.539,11.223 -8.414,14.551 L 23.344,46.039 21.355,43.742 21.023,27.641 Z"
         style="fill:#ffffff;fill-opacity:1;fill-rule:nonzero;stroke:none"
         id="path827"
         inkscape:connector-curvature="0" /><text
         transform="matrix(0.85176314,0,0,1,52.53627,37.561398)"
         style="font-variant:normal;font-weight:bold;font-size:30.40535927px;font-family:'DejaVu Sans';-inkscape-font-specification:DejaVuSans-Bold;writing-mode:lr-tb;fill:#ffffff;fill-opacity:1;fill-rule:nonzero;stroke:none"
         id="text831"><tspan
           x="0 19.824295 41.442505 63.060719 84.770142"
           y="0"
           sodipodi:role="line"
           id="tspan829">Yuuup</tspan></text>
<text
         transform="matrix(0.94091742,0,0,1,54.279269,54.456329)"
         style="font-variant:normal;font-weight:normal;font-size:12.22856331px;font-family:'DejaVu Sans';-inkscape-font-specification:DejaVuSans;writing-mode:lr-tb;fill:#ffffff;fill-opacity:1;fill-rule:nonzero;stroke:none"
         id="text835"><tspan
           x="0 6.3710814 13.891647 17.278959 22.072556 29.544209 33.420662 41.173573 48.657452 53.683392 61.167271 65.080414 72.307495 79.779144 86.492622"
           y="0"
           sodipodi:role="line"
           id="tspan833">Feito para você</tspan></text>
<path
         d="m 28.438,0.23 c -5.235,0.004 -6.645,0.239 -9.293,1.551 -2.036,1.012 -4.602,2.899 -5.868,4.313 -0.632,0.711 -2.039,2.586 -2.039,2.718 0,0.067 -0.093,0.227 -0.211,0.356 -0.406,0.445 -1.531,2.773 -1.847,3.816 -1.59,5.235 -0.629,11.11 2.902,17.778 1.094,2.062 3.375,5.621 4.805,7.488 0.465,0.605 0.937,1.242 1.054,1.418 0.118,0.176 0.457,0.586 0.758,0.914 0.297,0.328 0.735,0.867 0.969,1.195 0.441,0.614 0.531,0.719 1.562,1.864 0.219,0.242 0.61,0.699 1.02,1.179 -0.152,-0.343 -0.258,-0.824 -0.207,-1.086 0.051,-0.254 1.539,-2.996 3.309,-6.093 1.769,-3.094 3.285,-5.875 3.367,-6.176 0.301,-1.094 0.097,-1.563 -3.172,-7.305 -4.192,-7.355 -4.461,-7.859 -4.461,-8.328 0,-0.504 0.359,-1.215 0.676,-1.34 0.136,-0.051 1.886,-0.09 3.89,-0.09 3.305,0 3.703,0.024 4.203,0.286 0.836,0.429 1.555,1.269 2.5,2.921 1.481,2.582 3.637,6.317 5.254,9.098 1.758,3.031 1.996,3.734 1.703,5.016 -0.042,0.175 -0.16,0.457 -0.343,0.836 0.176,-0.352 0.301,-0.618 0.343,-0.758 0.153,-0.481 0.438,-1.071 0.637,-1.305 0.199,-0.238 0.582,-0.887 0.848,-1.437 0.265,-0.555 0.695,-1.243 0.957,-1.528 0.012,-0.011 0.031,-0.047 0.047,-0.062 -0.274,0.273 -0.496,0.359 -0.938,0.355 -1.168,0 -1.187,-0.027 -3.554,-4.109 -0.614,-1.063 -1.739,-3 -2.5,-4.309 -0.762,-1.304 -1.454,-2.59 -1.532,-2.851 -0.234,-0.77 -0.019,-1.524 0.535,-1.864 0.454,-0.273 0.797,-0.289 6.793,-0.289 6.879,0 6.895,0 7.352,0.852 0.355,0.668 0.277,1.066 -1.602,4.441 0.965,-1.718 1.735,-3.121 1.809,-3.351 0.055,-0.172 0,-0.664 -0.121,-1.09 C 47.926,14.824 47.723,14.035 47.598,13.5 47.473,12.965 47.195,12.145 46.98,11.684 46.77,11.219 46.598,10.789 46.598,10.73 46.598,10.496 45.18,8.18 44.734,7.688 44.473,7.398 44.039,6.875 43.77,6.523 42.816,5.281 39.426,2.773 37.996,2.254 37.68,2.141 36.984,1.848 36.453,1.605 35.918,1.359 34.66,0.953 33.66,0.695 31.875,0.238 31.762,0.227 28.438,0.23 Z m 4.816,42.165 c -0.059,0.097 -0.258,0.429 -0.297,0.5 -0.855,1.453 -0.98,1.597 -1.734,1.968 -0.649,0.321 -1.082,0.41 -2.157,0.461 -1.074,0.047 -5.816,-0.062 -6.511,-0.144 0.117,0.136 0.234,0.273 0.34,0.402 4.406,5.266 4.957,5.68 6.031,4.512 0.285,-0.309 0.558,-0.696 0.609,-0.86 0.051,-0.164 0.274,-0.531 0.496,-0.82 0.219,-0.285 0.688,-1.16 1.039,-1.937 0.352,-0.782 0.7,-1.52 0.77,-1.641 0.383,-0.676 0.875,-1.524 1.414,-2.441 z"
         style="fill:#c83737;fill-opacity:1;fill-rule:nonzero;stroke:none"
         id="path837"
         inkscape:connector-curvature="0" /></g></g></svg>